<svg xmlns="http://www.w3.org/2000/svg" viewBox="0 0 512 512">
  <rect width="512" height="512" rx="112" fill="#f59e0b"/>
  <g fill="#fff7ea">
    <ellipse cx="166" cy="180" rx="42" ry="56" transform="rotate(-18 166 180)"/>
    <ellipse cx="346" cy="180" rx="42" ry="56" transform="rotate(18 346 180)"/>
    <ellipse cx="86" cy="272" rx="36" ry="48" transform="rotate(-38 86 272)"/>
    <ellipse cx="426" cy="272" rx="36" ry="48" transform="rotate(38 426 272)"/>
    <path d="M256 240c62 0 116 46 116 104 0 44-34 72-76 66-16-2-28-8-40-8s-24 6-40 8c-42 6-76-22-76-66 0-58 54-104 116-104z"/>
  </g>
  <text x="256" y="356" text-anchor="middle" font-family="ui-rounded, 'Segoe UI', system-ui, sans-serif" font-size="96" font-weight="900" fill="#f59e0b">×</text>
</svg>
